<svg width="158" height="47" viewBox="0 0 158 47" fill="none" xmlns="http://www.w3.org/2000/svg">
<path d="M64.7721 17.5482V32.5002H61.4401V30.5962C60.8801 31.2682 60.1801 31.7909 59.3401 32.1642C58.5001 32.5189 57.5947 32.6962 56.6241 32.6962C54.6267 32.6962 53.0494 32.1456 51.8921 31.0442C50.7534 29.9242 50.1841 28.2722 50.1841 26.0882V17.5482H53.6841V25.6122C53.6841 26.9562 53.9827 27.9642 54.5801 28.6362C55.1961 29.2896 56.0641 29.6162 57.1841 29.6162C58.4347 29.6162 59.4241 29.2336 60.1521 28.4682C60.8987 27.6842 61.2721 26.5642 61.2721 25.1082V17.5482H64.7721ZM77.6427 17.3802C79.0987 17.3802 80.396 17.6976 81.5347 18.3322C82.692 18.9669 83.5973 19.8629 84.2507 21.0202C84.904 22.1776 85.2307 23.5122 85.2307 25.0242C85.2307 26.5362 84.904 27.8802 84.2507 29.0562C83.5973 30.2136 82.692 31.1096 81.5347 31.7442C80.396 32.3789 79.0987 32.6962 77.6427 32.6962C75.6267 32.6962 74.0307 32.0242 72.8547 30.6802V37.9322H69.3547V17.5482H72.6867V19.5082C73.2653 18.7989 73.9747 18.2669 74.8147 17.9122C75.6733 17.5576 76.616 17.3802 77.6427 17.3802ZM77.2507 29.7002C78.5387 29.7002 79.5933 29.2709 80.4147 28.4122C81.2547 27.5536 81.6747 26.4242 81.6747 25.0242C81.6747 23.6242 81.2547 22.4949 80.4147 21.6362C79.5933 20.7776 78.5387 20.3482 77.2507 20.3482C76.4107 20.3482 75.6547 20.5442 74.9827 20.9362C74.3107 21.3096 73.7787 21.8509 73.3867 22.5602C72.9947 23.2696 72.7987 24.0909 72.7987 25.0242C72.7987 25.9576 72.9947 26.7789 73.3867 27.4882C73.7787 28.1976 74.3107 28.7482 74.9827 29.1402C75.6547 29.5136 76.4107 29.7002 77.2507 29.7002ZM90.7565 15.9802H84.2605V12.9002H100.892V15.9802H94.3965V32.5002H90.7565V15.9802ZM106.265 19.7322C107.273 18.1642 109.046 17.3802 111.585 17.3802V20.7122C111.286 20.6562 111.015 20.6282 110.773 20.6282C109.41 20.6282 108.346 21.0296 107.581 21.8322C106.815 22.6162 106.433 23.7549 106.433 25.2482V32.5002H102.933V17.5482H106.265V19.7322ZM120.184 17.3802C122.387 17.3802 124.067 17.9122 125.224 18.9762C126.4 20.0216 126.988 21.6082 126.988 23.7362V32.5002H123.684V30.6802C123.255 31.3336 122.639 31.8376 121.836 32.1922C121.052 32.5282 120.1 32.6962 118.98 32.6962C117.86 32.6962 116.88 32.5096 116.04 32.1362C115.2 31.7442 114.547 31.2122 114.08 30.5402C113.632 29.8496 113.408 29.0749 113.408 28.2162C113.408 26.8722 113.903 25.7989 114.892 24.9962C115.9 24.1749 117.477 23.7642 119.624 23.7642H123.488V23.5402C123.488 22.4949 123.171 21.6922 122.536 21.1322C121.92 20.5722 120.996 20.2922 119.764 20.2922C118.924 20.2922 118.093 20.4229 117.272 20.6842C116.469 20.9456 115.788 21.3096 115.228 21.7762L113.856 19.2282C114.64 18.6309 115.583 18.1736 116.684 17.8562C117.785 17.5389 118.952 17.3802 120.184 17.3802ZM119.708 30.1482C120.585 30.1482 121.36 29.9522 122.032 29.5602C122.723 29.1496 123.208 28.5709 123.488 27.8242V26.0882H119.876C117.86 26.0882 116.852 26.7509 116.852 28.0762C116.852 28.7109 117.104 29.2149 117.608 29.5882C118.112 29.9616 118.812 30.1482 119.708 30.1482ZM131.48 17.5482H134.98V32.5002H131.48V17.5482ZM133.244 15.0842C132.609 15.0842 132.077 14.8882 131.648 14.4962C131.218 14.0856 131.004 13.5816 131.004 12.9842C131.004 12.3869 131.218 11.8922 131.648 11.5002C132.077 11.0896 132.609 10.8842 133.244 10.8842C133.878 10.8842 134.41 11.0802 134.84 11.4722C135.269 11.8456 135.484 12.3216 135.484 12.9002C135.484 13.5162 135.269 14.0389 134.84 14.4682C134.429 14.8789 133.897 15.0842 133.244 15.0842ZM148.057 17.3802C149.943 17.3802 151.455 17.9309 152.593 19.0322C153.732 20.1336 154.301 21.7669 154.301 23.9322V32.5002H150.801V24.3802C150.801 23.0736 150.493 22.0936 149.877 21.4402C149.261 20.7682 148.384 20.4322 147.245 20.4322C145.957 20.4322 144.94 20.8242 144.193 21.6082C143.447 22.3736 143.073 23.4842 143.073 24.9402V32.5002H139.573V17.5482H142.905V19.4802C143.484 18.7896 144.212 18.2669 145.089 17.9122C145.967 17.5576 146.956 17.3802 148.057 17.3802Z" fill="black"/>
<g filter="url(#filter0_d_225_903)">
<path d="M38 22.5C38 32.4411 29.9411 40.5 20 40.5C10.0589 40.5 2 32.4411 2 22.5C2 12.5589 20 -1.90735e-06 20 -1.90735e-06C20 -1.90735e-06 38 12.5589 38 22.5ZM9.69307 22.5C9.69307 28.1924 14.3076 32.8069 20 32.8069C25.6924 32.8069 30.3069 28.1924 30.3069 22.5C30.3069 16.8076 25.6924 12.1931 20 12.1931C14.3076 12.1931 9.69307 16.8076 9.69307 22.5Z" fill="url(#paint0_linear_225_903)"/>
</g>
<defs>
<filter id="filter0_d_225_903" x="0" y="0" width="42" height="46.5" filterUnits="userSpaceOnUse" color-interpolation-filters="sRGB">
<feFlood flood-opacity="0" result="BackgroundImageFix"/>
<feColorMatrix in="SourceAlpha" type="matrix" values="0 0 0 0 0 0 0 0 0 0 0 0 0 0 0 0 0 0 127 0" result="hardAlpha"/>
<feOffset dx="1" dy="3"/>
<feGaussianBlur stdDeviation="1.5"/>
<feComposite in2="hardAlpha" operator="out"/>
<feColorMatrix type="matrix" values="0 0 0 0 0 0 0 0 0 0 0 0 0 0 0 0 0 0 0.25 0"/>
<feBlend mode="normal" in2="BackgroundImageFix" result="effect1_dropShadow_225_903"/>
<feBlend mode="normal" in="SourceGraphic" in2="effect1_dropShadow_225_903" result="shape"/>
</filter>
<linearGradient id="paint0_linear_225_903" x1="6.86024" y1="8.28" x2="33.6802" y2="35.91" gradientUnits="userSpaceOnUse">
<stop stop-color="#6274E7"/>
<stop offset="1" stop-color="#8752A3"/>
</linearGradient>
</defs>
</svg>
